<svg width="72" height="72" viewBox="0 0 72 72" fill="none" xmlns="http://www.w3.org/2000/svg">
<rect width="71.2593" height="71.2593" rx="18.1333" fill="#006F73"/>
<path d="M44.2422 27.4753C44.9562 24.783 45.5512 16.4678 42.6654 13.5821C42.4883 13.383 42.2609 13.2352 42.0071 13.1541C41.7533 13.073 41.4823 13.0615 41.2226 13.121C37.2509 14.1473 33.5917 21.689 32.8628 24.3813C32.428 26.0737 32.4451 27.8505 32.9123 29.5342C33.3796 31.2179 34.2807 32.7495 35.5254 33.9757H35.6147C35.8055 34.1669 36.0448 34.3026 36.3068 34.3681C36.5689 34.4336 36.8439 34.4265 37.1022 34.3476C38.7864 33.9202 40.3303 33.0619 41.5822 31.8569C42.8341 30.652 43.7508 29.142 44.2422 27.4753Z" fill="white"/>
<path d="M58.3127 30.2121C58.3898 29.9525 58.3945 29.6767 58.3263 29.4146C58.2582 29.1524 58.1197 28.9139 57.926 28.7246C55.0402 25.8389 46.7251 26.4339 44.0327 27.1479C42.335 27.6277 40.7943 28.5477 39.5666 29.8146C38.3389 31.0815 37.4678 32.6503 37.0415 34.3622C36.9625 34.6206 36.9555 34.8955 37.021 35.1576C37.0865 35.4197 37.2221 35.6589 37.4133 35.8498L37.4877 35.939C38.7139 37.1838 40.2455 38.0849 41.9292 38.5521C43.6129 39.0194 45.3897 39.0365 47.0821 38.6016C49.7001 37.843 57.2417 34.1837 58.3127 30.2121Z" fill="white"/>
<path d="M53.8516 18.6393C53.7843 18.3858 53.6511 18.1546 53.4657 17.9691C53.2802 17.7836 53.049 17.6505 52.7954 17.5832C48.7048 16.4378 41.1037 21.3317 38.7683 23.682C37.4221 25.0507 36.4645 26.7532 35.9939 28.6145C35.5234 30.4758 35.5568 32.4288 36.0908 34.273C36.1591 34.522 36.291 34.7489 36.4735 34.9315C36.6561 35.114 36.8831 35.2459 37.1321 35.3142C38.9762 35.8482 40.9292 35.8817 42.7905 35.4111C44.6518 34.9405 46.3543 33.983 47.7231 32.6367C50.0733 30.3311 54.9672 22.73 53.8516 18.6393Z" fill="white" fill-opacity="0.5"/>
<path d="M46.115 39.3902C46.2563 38.4179 46.1685 37.4261 45.8586 36.4938C45.5487 35.5615 45.0252 34.7145 44.33 34.0203L37.4875 27.1034C36.7919 26.4121 35.9456 25.8912 35.015 25.5816C34.0844 25.272 33.0947 25.1821 32.1235 25.319C31.1524 25.4559 30.2261 25.8158 29.4173 26.3706C28.6085 26.9253 27.9392 27.6598 27.4618 28.5166L14.2082 52.3166C13.8247 53.0001 13.6728 53.7895 13.7753 54.5665C13.8777 55.3436 14.2289 56.0666 14.7764 56.6274C15.3238 57.1883 16.0382 57.5569 16.8125 57.6781C17.5869 57.7992 18.3796 57.6665 19.0723 57.2997L42.8723 44.0461C43.7397 43.5782 44.485 42.9131 45.0482 42.1044C45.6115 41.2957 45.9769 40.366 46.115 39.3902Z" fill="white" fill-opacity="0.5"/>
<path d="M32.8601 35.1954C32.9995 35.0571 33.1101 34.8925 33.1857 34.7113C33.2612 34.53 33.3001 34.3356 33.3001 34.1392C33.3001 33.9429 33.2612 33.7484 33.1857 33.5672C33.1101 33.3859 32.9995 33.2214 32.8601 33.0831L27.7282 27.9958C27.6092 28.1743 27.4902 28.3528 27.3861 28.5462L26.2109 30.6734L30.7627 35.2251C31.0453 35.4982 31.4245 35.6484 31.8175 35.6428C32.2105 35.6373 32.5853 35.4764 32.8601 35.1954Z" fill="white"/>
<path d="M32.4452 44.1055C32.3069 43.9661 32.1424 43.8554 31.9611 43.7799C31.7799 43.7044 31.5854 43.6655 31.3891 43.6655C31.1927 43.6655 30.9983 43.7044 30.817 43.7799C30.6357 43.8554 30.4712 43.9661 30.3329 44.1055C30.0559 44.3842 29.9004 44.7612 29.9004 45.1542C29.9004 45.5472 30.0559 45.9242 30.3329 46.2029L33.4418 49.3118L36.1491 47.8243L32.4452 44.1055Z" fill="white"/>
<path d="M21.6157 46.8127C21.7551 46.6744 21.8658 46.5099 21.9413 46.3286C22.0168 46.1474 22.0557 45.9529 22.0557 45.7566C22.0557 45.5602 22.0168 45.3658 21.9413 45.1845C21.8658 45.0032 21.7551 44.8387 21.6157 44.7004L19.548 42.6328L18.0605 45.3401L19.548 46.8276C19.8273 47.0937 20.1991 47.2409 20.5849 47.2381C20.9706 47.2353 21.3402 47.0828 21.6157 46.8127Z" fill="white"/>
</svg>
