<svg width="60" height="60" viewBox="0 0 60 60" fill="none" xmlns="http://www.w3.org/2000/svg">
<rect width="60" height="60" rx="16" fill="#B560C0"/>
<path opacity="0.5" d="M14.9359 14.9373C12.3516 17.5216 12.3516 21.6811 12.3516 30C12.3516 38.3188 12.3516 42.4784 14.9359 45.0626C17.5203 47.647 21.6797 47.647 29.9986 47.647C38.3174 47.647 42.477 47.647 45.0613 45.0626C47.6457 42.4784 47.6457 38.3188 47.6457 30C47.6457 21.6811 47.6457 17.5216 45.0613 14.9373C42.477 12.3529 38.3174 12.3529 29.9986 12.3529C21.6797 12.3529 17.5203 12.3529 14.9359 14.9373Z" fill="white"/>
<path d="M20.733 21.1764C20.733 20.4455 20.1404 19.8529 19.4095 19.8529C18.6785 19.8529 18.0859 20.4455 18.0859 21.1764V38.8235C18.0859 39.5544 18.6785 40.147 19.4095 40.147C20.1404 40.147 20.733 39.5544 20.733 38.8235V21.1764Z" fill="white"/>
<path fill-rule="evenodd" clip-rule="evenodd" d="M25.5322 22.0053C26.049 21.4885 26.887 21.4885 27.4039 22.0053L29.8775 24.4788C30.9236 23.7859 32.1781 23.3824 33.5269 23.3824C34.8756 23.3824 36.1302 23.7859 37.1763 24.4788L39.6499 22.0053C40.1668 21.4885 41.0046 21.4885 41.5215 22.0053C42.0384 22.5222 42.0384 23.3602 41.5215 23.8771L39.0481 26.3505C39.7409 27.3967 40.1445 28.6513 40.1445 30C40.1445 31.3488 39.7409 32.6033 39.0481 33.6494L41.5215 36.123C42.0384 36.6399 42.0384 37.4778 41.5215 37.9947C41.0046 38.5116 40.1668 38.5116 39.6499 37.9947L37.1763 35.5213C36.1302 36.2141 34.8756 36.6177 33.5269 36.6177C32.1781 36.6177 30.9236 36.2141 29.8775 35.5213L27.4039 37.9947C26.887 38.5116 26.049 38.5116 25.5322 37.9947C25.0153 37.4778 25.0153 36.6399 25.5322 36.123L28.0056 33.6494C27.3128 32.6033 26.9092 31.3488 26.9092 30C26.9092 28.6513 27.3128 27.3967 28.0056 26.3505L25.5322 23.8771C25.0153 23.3602 25.0153 22.5222 25.5322 22.0053ZM29.5563 30C29.5563 27.8072 31.3341 26.0294 33.5269 26.0294C35.7197 26.0294 37.4975 27.8072 37.4975 30C37.4975 32.1928 35.7197 33.9706 33.5269 33.9706C31.3341 33.9706 29.5563 32.1928 29.5563 30Z" fill="white"/>
</svg>
