<svg xmlns="http://www.w3.org/2000/svg" width="19" height="19" viewBox="0 0 19 19" fill="none">
  <path fill-rule="evenodd" clip-rule="evenodd" d="M6.33268 2.37496C4.14656 2.37496 2.37435 4.14717 2.37435 6.33329C2.37435 8.51942 4.14656 10.2916 6.33268 10.2916C8.51881 10.2916 10.291 8.51942 10.291 6.33329C10.291 4.14717 8.51881 2.37496 6.33268 2.37496ZM0.791016 6.33329C0.791016 3.27271 3.2721 0.791626 6.33268 0.791626C9.39326 0.791626 11.8743 3.27271 11.8743 6.33329C11.8743 9.39387 9.39326 11.875 6.33268 11.875C3.2721 11.875 0.791016 9.39387 0.791016 6.33329ZM4.74935 4.74996C4.74935 4.31273 5.10379 3.95829 5.54102 3.95829H6.33268C6.76991 3.95829 7.12435 4.31273 7.12435 4.74996V7.91663C7.12435 8.35385 6.76991 8.70829 6.33268 8.70829C5.89546 8.70829 5.54102 8.35385 5.54102 7.91663V5.54163C5.10379 5.54163 4.74935 5.18718 4.74935 4.74996ZM13.5787 7.93308C13.7314 7.5234 14.1873 7.31511 14.597 7.46784C15.4701 7.79335 16.2471 8.33376 16.856 9.03909C17.4649 9.74442 17.8861 10.5919 18.0807 11.5032C18.2752 12.4144 18.2369 13.36 17.9692 14.2526C17.7015 15.1451 17.213 15.9557 16.549 16.6094C15.885 17.2631 15.0669 17.7388 14.1703 17.9926C13.2737 18.2464 12.3276 18.2699 11.4195 18.0612C10.5114 17.8524 9.67059 17.418 8.97485 16.7982C8.2791 16.1783 7.75089 15.3931 7.43904 14.515C7.29272 14.103 7.5081 13.6504 7.92011 13.504C8.33213 13.3577 8.78475 13.5731 8.93108 13.9851C9.15382 14.6123 9.53112 15.1732 10.0281 15.6159C10.525 16.0587 11.1256 16.369 11.7743 16.5181C12.4229 16.6672 13.0987 16.6504 13.7391 16.4691C14.3795 16.2879 14.9639 15.948 15.4382 15.4811C15.9125 15.0142 16.2614 14.4352 16.4526 13.7976C16.6438 13.1601 16.6712 12.4847 16.5322 11.8338C16.3932 11.1829 16.0924 10.5776 15.6574 10.0737C15.2225 9.56994 14.6676 9.18393 14.0439 8.95143C13.6342 8.79869 13.4259 8.34276 13.5787 7.93308ZM12.6722 10.4245C12.9835 10.1175 13.4848 10.121 13.7917 10.4324L14.3459 10.9945C14.6513 11.3043 14.6496 11.8025 14.3419 12.1101L12.1094 14.3426C11.8003 14.6517 11.299 14.6517 10.9898 14.3426C10.6807 14.0334 10.6807 13.5322 10.9898 13.223L12.6665 11.5463L12.6642 11.544C12.3573 11.2327 12.3608 10.7314 12.6722 10.4245Z" fill="#006F73"/>
</svg>