<svg width="60" height="60" viewBox="0 0 60 60" fill="none" xmlns="http://www.w3.org/2000/svg">
<rect width="60" height="60" rx="16" fill="#B560C0"/>
<path opacity="0.5" d="M33.5319 47.647H26.4731C19.818 47.647 16.4904 47.647 14.4229 45.5084C12.3555 43.3699 12.3555 39.9278 12.3555 33.0441V30.3598C12.3555 26.3214 12.3555 24.3022 13.2717 22.6283C14.1879 20.9545 15.8619 19.9156 19.2096 17.8378L22.7391 15.6474C26.2779 13.4511 28.0474 12.3529 30.0025 12.3529C31.9576 12.3529 33.7271 13.4511 37.2661 15.6474L40.7955 17.8378C44.1433 19.9156 45.8171 20.9545 46.7334 22.6283C47.6496 24.3022 47.6496 26.3214 47.6496 30.3598V33.0441C47.6496 39.9278 47.6496 43.3699 45.5821 45.5084C43.5147 47.647 40.187 47.647 33.5319 47.647Z" fill="white"/>
<path d="M39.617 30.3392C34.293 24.5928 25.7062 24.5928 20.3823 30.3392C19.8855 30.8754 19.0481 30.9074 18.5119 30.4106C17.9757 29.9139 17.9438 29.0763 18.4405 28.5402C24.8121 21.663 35.1872 21.663 41.5588 28.5402C42.0556 29.0763 42.0237 29.9139 41.4874 30.4106C40.9512 30.9074 40.1137 30.8754 39.617 30.3392Z" fill="white"/>
<path d="M36.0876 34.1482C32.7127 30.5057 27.2863 30.5057 23.9116 34.1482C23.4148 34.6845 22.5774 34.7165 22.0412 34.2197C21.505 33.7229 21.4731 32.8854 21.9698 32.3493C26.3921 27.5761 33.6069 27.5761 38.0293 32.3493C38.526 32.8854 38.4941 33.7229 37.9578 34.2197C37.4217 34.7165 36.5843 34.6845 36.0876 34.1482Z" fill="white"/>
<path d="M32.558 37.9583C31.1325 36.4198 28.8664 36.4198 27.4409 37.9583C26.9441 38.4946 26.1067 38.5265 25.5705 38.0297C25.0343 37.533 25.0024 36.6954 25.4991 36.1593C27.9722 33.49 32.0267 33.49 34.4997 36.1593C34.9965 36.6954 34.9645 37.533 34.4284 38.0297C33.8921 38.5265 33.0548 38.4946 32.558 37.9583Z" fill="white"/>
</svg>
