<svg width="60" height="60" viewBox="0 0 60 60" fill="none" xmlns="http://www.w3.org/2000/svg">
<rect width="60" height="60" rx="16" fill="#B560C0"/>
<path fill-rule="evenodd" clip-rule="evenodd" d="M46.8182 29.2689L45.4391 28.1656V46.3236H47.645C48.3759 46.3236 48.9685 46.9162 48.9685 47.6471C48.9685 48.3782 48.3759 48.9706 47.645 48.9706H12.3509C11.6199 48.9706 11.0274 48.3782 11.0274 47.6471C11.0274 46.9162 11.6199 46.3236 12.3509 46.3236H14.5568V28.1656L13.1777 29.2689C12.6069 29.7256 11.774 29.633 11.3174 29.0623C10.8608 28.4914 10.9533 27.6585 11.5241 27.2019L25.864 15.73C28.2809 13.7965 31.7152 13.7965 34.1319 15.73L48.4717 27.2019C49.0426 27.6585 49.1351 28.4914 48.6786 29.0623C48.2219 29.633 47.3891 29.7256 46.8182 29.2689ZM29.9979 20.7354C27.3177 20.7354 25.145 22.9082 25.145 25.5884C25.145 28.2685 27.3177 30.4412 29.9979 30.4412C32.6782 30.4412 34.8509 28.2685 34.8509 25.5884C34.8509 22.9082 32.6782 20.7354 29.9979 20.7354ZM33.0789 32.3146C32.2693 32.2059 31.2585 32.2059 30.0851 32.2059H29.9109C28.7376 32.2059 27.7266 32.2059 26.9171 32.3146C26.0495 32.4313 25.2178 32.6944 24.5433 33.3691C23.8687 34.0435 23.6057 34.8752 23.489 35.7428C23.3802 36.5522 23.3803 37.5632 23.3803 38.7366V46.3236H26.0274H33.9685H36.6156V38.7366V38.5185C36.6152 37.4376 36.6089 36.5018 36.5069 35.7428C36.3902 34.8752 36.1273 34.0435 35.4526 33.3691C34.7782 32.6944 33.9465 32.4313 33.0789 32.3146Z" fill="white"/>
<g opacity="0.5">
<path fill-rule="evenodd" clip-rule="evenodd" d="M27.7949 25.5882C27.7949 24.3699 28.7825 23.3823 30.0008 23.3823C31.2192 23.3823 32.2067 24.3699 32.2067 25.5882C32.2067 26.8066 31.2192 27.7941 30.0008 27.7941C28.7825 27.7941 27.7949 26.8066 27.7949 25.5882Z" fill="white"/>
<path fill-rule="evenodd" clip-rule="evenodd" d="M27.7949 25.5882C27.7949 24.3699 28.7825 23.3823 30.0008 23.3823C31.2192 23.3823 32.2067 24.3699 32.2067 25.5882C32.2067 26.8066 31.2192 27.7941 30.0008 27.7941C28.7825 27.7941 27.7949 26.8066 27.7949 25.5882Z" fill="white"/>
</g>
<path opacity="0.5" d="M30.0876 32.2059C31.2608 32.2059 32.2718 32.2058 33.0813 32.3146C33.949 32.4313 34.7805 32.6944 35.4552 33.3689C36.1296 34.0435 36.3928 34.875 36.5094 35.7428C36.6114 36.5016 36.6178 37.4376 36.6181 38.5183V46.3236H23.3828V38.7364C23.3828 37.5632 23.3827 36.5522 23.4915 35.7428C23.6082 34.875 23.8712 34.0435 24.5458 33.3689C25.2203 32.6944 26.052 32.4313 26.9196 32.3146C27.7291 32.2058 28.7401 32.2059 29.9133 32.2059H30.0876Z" fill="white"/>
<path opacity="0.5" d="M37.0581 14.1177H41.4699C41.9571 14.1177 42.3523 14.5127 42.3523 15V22.3051L36.1758 17.3639V15C36.1758 14.5127 36.5709 14.1177 37.0581 14.1177Z" fill="white"/>
</svg>
