<svg xmlns="http://www.w3.org/2000/svg" width="19" height="19" viewBox="0 0 19 19" fill="none">
  <path fill-rule="evenodd" clip-rule="evenodd" d="M4.16667 1.66667C3.24619 1.66667 2.5 2.41286 2.5 3.33333C2.5 4.25381 3.24619 5 4.16667 5C5.08714 5 5.83333 4.25381 5.83333 3.33333C5.83333 2.41286 5.08714 1.66667 4.16667 1.66667ZM0.833333 3.33333C0.833333 1.49238 2.32572 0 4.16667 0C6.00762 0 7.5 1.49238 7.5 3.33333C7.5 5.17428 6.00762 6.66667 4.16667 6.66667C2.32572 6.66667 0.833333 5.17428 0.833333 3.33333ZM12.5001 5.08341C11.6256 5.08341 10.9167 5.7923 10.9167 6.66675C10.9167 7.5412 11.6256 8.25008 12.5001 8.25008C12.8744 8.25008 13.2184 8.12019 13.4894 7.90303L13.6593 7.74528C13.9224 7.46256 14.0834 7.08345 14.0834 6.66675C14.0834 5.7923 13.3745 5.08341 12.5001 5.08341ZM15.7498 6.62144C15.7255 4.8474 14.2799 3.41675 12.5001 3.41675C10.7052 3.41675 9.25008 4.87182 9.25008 6.66675C9.25008 6.95479 9.28755 7.23407 9.35789 7.5H7.5C6.84659 7.5 6.16682 7.71449 5.71326 8.2736L1.67728 12.1654L1.42259 11.9107C1.09715 11.5853 0.569515 11.5853 0.244078 11.9107C-0.0813592 12.2362 -0.0813592 12.7638 0.244078 13.0893L1.07604 13.9212C1.07709 13.9223 1.07815 13.9233 1.0792 13.9244L4.40503 17.2502C4.4092 17.2545 4.41341 17.2587 4.41765 17.2628L5.24408 18.0893C5.56951 18.4147 6.09715 18.4147 6.42259 18.0893C6.74803 17.7638 6.74803 17.2362 6.42259 16.9107L6.21912 16.7073L6.88209 16.1272C6.92571 16.089 6.96522 16.0464 7 16C7.04728 15.937 7.17619 15.8334 7.5 15.8334H10.8333C11.9431 15.8334 13.0065 15.43 13.7678 14.5782L17.5724 10.939C17.573 10.9384 17.5737 10.9378 17.5744 10.9371C18.0554 10.4816 18.336 9.85383 18.3548 9.19155C18.3735 8.52835 18.128 7.88486 17.6723 7.40265C17.2166 6.92044 16.5881 6.63901 15.9249 6.62026C15.8663 6.61861 15.8079 6.61901 15.7498 6.62144ZM14.5863 9.15888C14.6713 9.08761 14.7527 9.01207 14.83 8.9326L15.2754 8.51902L15.2807 8.51403C15.4416 8.36194 15.6564 8.28001 15.8778 8.28626C16.0991 8.29252 16.3089 8.38645 16.461 8.54739C16.6131 8.70833 16.695 8.9231 16.6888 9.14445C16.6825 9.3658 16.5886 9.57559 16.4276 9.72769L12.5906 13.3978C12.5728 13.4149 12.5558 13.4327 12.5395 13.4513C12.1358 13.9126 11.5442 14.1667 10.8333 14.1667H7.5C6.85356 14.1667 6.18133 14.3766 5.72787 14.9225L5.03799 15.5261L2.85599 13.3441L6.91178 9.4332C6.94381 9.40232 6.97331 9.36893 7 9.33333C7.04727 9.2703 7.17619 9.16667 7.5 9.16667H10C10.221 9.16667 10.433 9.25446 10.5893 9.41074C10.7455 9.56703 10.8333 9.77899 10.8333 10C10.8333 10.221 10.7455 10.433 10.5893 10.5893C10.433 10.7455 10.221 10.8333 10 10.8333H8.33333C7.8731 10.8333 7.5 11.2064 7.5 11.6667C7.5 12.1269 7.8731 12.5 8.33333 12.5H10C10.6358 12.5 11.2467 12.2578 11.7092 11.8245C11.732 11.8073 11.754 11.7888 11.7754 11.769L14.5863 9.15888Z" fill="#B560C0"/>
</svg>