<svg width="72" height="72" viewBox="0 0 72 72" fill="none" xmlns="http://www.w3.org/2000/svg">
<rect width="71.2593" height="71.2593" rx="18.1333" fill="#006F73"/>
<path opacity="0.5" d="M18.6789 45.9623C24.2018 55.5281 36.4336 58.8057 45.9994 53.2829C49.8986 51.0317 52.753 47.6657 54.3924 43.8201C56.775 38.2311 56.5916 31.629 53.32 25.9623C50.0484 20.2957 44.4224 16.8357 38.391 16.1046C34.2408 15.6016 29.8986 16.3906 25.9994 18.6418C16.4336 24.1647 13.1561 36.3965 18.6789 45.9623Z" fill="white"/>
<path d="M39.8818 16.3416C39.3888 16.2439 38.892 16.1646 38.3922 16.104C37.8908 16.0432 37.3864 16.0013 36.8804 15.9785C36.8612 16.0641 36.8386 16.1695 36.8138 16.2939C36.7442 16.6428 36.6578 17.1413 36.583 17.7662C36.4846 18.5888 37.0714 19.3354 37.894 19.4339C38.7166 19.5324 39.4632 18.9454 39.5618 18.1228C39.6266 17.5815 39.7002 17.1597 39.756 16.8798C39.7838 16.74 39.8072 16.6359 39.8226 16.5702C39.8302 16.5374 39.836 16.5142 39.8392 16.5011L39.8418 16.4907L39.8424 16.4885L39.8818 16.3416Z" fill="white"/>
<path d="M17.0684 29.5123C17.2304 29.0359 17.4105 28.5653 17.6082 28.1017C17.8061 27.6376 18.0217 27.1805 18.2547 26.7314C18.3385 26.7576 18.4413 26.7907 18.5616 26.8315C18.8985 26.9458 19.3734 27.1202 19.952 27.3679C20.7136 27.6939 21.0667 28.5755 20.7407 29.3371C20.4147 30.0987 19.5331 30.4518 18.7715 30.1258C18.2702 29.9113 17.8681 29.7642 17.5979 29.6726C17.4629 29.6268 17.361 29.5949 17.2965 29.5754C17.2642 29.5657 17.2413 29.559 17.2282 29.5553L17.2189 29.5526L17.0684 29.5123Z" fill="white"/>
<path d="M35.1205 55.9449C34.6147 55.9221 34.1105 55.8803 33.6093 55.8195C33.1093 55.7589 32.6123 55.6797 32.1191 55.5819L32.1585 55.4347L32.1591 55.4325L32.1617 55.4221C32.1651 55.4089 32.1707 55.3857 32.1785 55.3529C32.1939 55.2873 32.2171 55.1831 32.2451 55.0433C32.3007 54.7635 32.3745 54.3417 32.4393 53.8003C32.5377 52.9777 33.2843 52.3909 34.1069 52.4893C34.9295 52.5877 35.5165 53.3345 35.4179 54.1569C35.3431 54.7819 35.2567 55.2803 35.1873 55.6293C35.1625 55.7537 35.1397 55.8593 35.1205 55.9449Z" fill="white"/>
<path d="M54.9317 42.4107C54.7699 42.8865 54.5901 43.3563 54.3927 43.8193C54.1947 44.2841 53.9787 44.7419 53.7455 45.1915C53.6617 45.1655 53.5591 45.1323 53.4391 45.0917C53.1023 44.9773 52.6273 44.8029 52.0487 44.5553C51.2871 44.2293 50.9341 43.3477 51.2601 42.5861C51.5861 41.8245 52.4677 41.4713 53.2293 41.7973C53.7305 42.0119 54.1327 42.1589 54.4029 42.2505C54.5379 42.2963 54.6397 42.3283 54.7043 42.3477C54.7365 42.3575 54.7595 42.3641 54.7725 42.3679L54.7815 42.3705L54.9317 42.4107Z" fill="white"/>
<path d="M39.5076 22.7908C39.4324 21.9658 38.7028 21.3579 37.8778 21.433C37.0528 21.5082 36.4448 22.2379 36.52 23.0629C36.6302 24.2734 36.8348 25.5906 37.1786 26.978C37.378 27.7821 38.1914 28.2724 38.9954 28.0732C39.7996 27.8739 40.2898 27.0605 40.0906 26.2564C39.7866 25.0294 39.6052 23.8633 39.5076 22.7908Z" fill="white"/>
<path d="M24.5699 29.9623C23.893 29.4847 22.9571 29.6463 22.4795 30.3233C22.002 31.0002 22.1636 31.9361 22.8405 32.4137C23.7205 33.0345 24.6397 33.7745 25.5503 34.6513C26.147 35.2259 27.0966 35.2081 27.6712 34.6113C28.2458 34.0145 28.2279 33.0649 27.6312 32.4903C26.6015 31.4989 25.5631 30.663 24.5699 29.9623Z" fill="white"/>
<path d="M41.6746 30.6565C41.3158 29.9098 40.4196 29.5953 39.673 29.9541C38.9262 30.3129 38.6118 31.209 38.9706 31.9557C39.2502 32.5378 39.5584 33.1238 39.8978 33.7114C40.237 34.2992 40.5904 34.859 40.9548 35.3924C41.422 36.0764 42.3554 36.2522 43.0394 35.7848C43.7234 35.3176 43.8992 34.3842 43.4318 33.7002C43.1096 33.2284 42.7966 32.7326 42.4958 32.2114C42.195 31.6904 41.922 31.1715 41.6746 30.6565Z" fill="white"/>
<path d="M31.0473 36.5307C30.5801 35.8467 29.6467 35.6709 28.9626 36.1383C28.2786 36.6055 28.1029 37.5389 28.5701 38.2229C28.8924 38.6947 29.2054 39.1905 29.5062 39.7115C29.8071 40.2327 30.08 40.7517 30.3274 41.2665C30.6862 42.0133 31.5824 42.3277 32.3292 41.9691C33.0758 41.6103 33.3902 40.7141 33.0316 39.9673C32.7518 39.3853 32.4436 38.7993 32.1044 38.2115C31.765 37.6239 31.4116 37.0641 31.0473 36.5307Z" fill="white"/>
<path d="M46.4506 37.2719C45.8538 36.6971 44.9042 36.7151 44.3296 37.3119C43.755 37.9087 43.773 38.8581 44.3696 39.4329C45.3994 40.4243 46.4378 41.2601 47.4308 41.9609C48.1078 42.4385 49.0438 42.2769 49.5212 41.5999C49.9988 40.9231 49.8372 39.9871 49.1604 39.5095C48.2804 38.8887 47.3612 38.1487 46.4506 37.2719Z" fill="white"/>
<path d="M34.8215 44.9451C34.6223 44.1411 33.8089 43.6507 33.0047 43.8501C32.2007 44.0493 31.7103 44.8627 31.9096 45.6667C32.2137 46.8937 32.3949 48.0599 32.4925 49.1323C32.5677 49.9573 33.2975 50.5653 34.1225 50.4901C34.9475 50.4151 35.5553 49.6853 35.4803 48.8603C35.3699 47.6499 35.1653 46.3325 34.8215 44.9451Z" fill="white"/>
</svg>
