<svg width="72" height="72" viewBox="0 0 72 72" fill="none" xmlns="http://www.w3.org/2000/svg">
<rect width="71.2593" height="71.2593" rx="18.1333" fill="#006F73"/>
<path d="M47.3107 51.341H21.4257C21.2595 51.341 21.1763 51.341 21.101 51.34C21.0873 51.3397 21.0736 51.3397 21.0599 51.3394V54.0614V56.7845C21.0599 57.9121 20.1589 58.8257 19.0475 58.8257C17.936 58.8257 17.035 57.9121 17.035 56.7845V50.4581C14.8112 49.4734 13.0389 47.7244 12.1836 45.515C12.1587 45.4505 12.1324 45.3791 12.0799 45.2363L8.58354 35.7301C7.4684 32.6984 9.95843 29.5674 13.4848 29.5674C15.659 29.5674 17.6006 30.8011 18.3417 32.6535L21.2883 40.0187C21.5564 40.6891 21.6905 41.0241 21.8848 41.2982C22.3386 41.9381 23.0513 42.391 23.8697 42.5595C24.2201 42.6316 24.6135 42.6316 25.4002 42.6316H44.127C45.654 42.6316 46.4177 42.6316 47.056 42.3646C47.4048 42.219 47.7217 42.0176 47.9917 41.7702C48.4862 41.317 48.7465 40.6665 49.267 39.3655L51.9521 32.6535C52.6933 30.8011 54.6348 29.5674 56.8091 29.5674C60.3354 29.5674 62.8255 32.6984 61.7103 35.7301L58.7067 43.8969C58.1832 45.3204 57.9213 46.0321 57.5757 46.6371C56.6151 48.3178 55.091 49.6471 53.2589 50.4579V56.7845C53.2589 57.9121 52.3578 58.8257 51.2464 58.8257C50.135 58.8257 49.234 57.9121 49.234 56.7845V51.3285C48.733 51.341 48.121 51.341 47.3107 51.341Z" fill="white"/>
<path opacity="0.5" d="M38.4638 11.8765H31.8325C28.878 11.8764 26.5305 11.8764 24.6917 12.1152C22.8008 12.3608 21.2456 12.88 20.0096 14.074C18.7644 15.2769 18.2145 16.8055 17.956 18.663C17.707 20.4522 17.707 22.7309 17.707 25.574V31.5495C17.9682 31.8848 18.1834 32.255 18.3429 32.6537L21.2895 40.0189C21.5576 40.6893 21.6917 41.0243 21.886 41.2984C22.3398 41.9383 23.0525 42.3912 23.8709 42.5596C24.2213 42.6318 24.6147 42.6318 25.4014 42.6318H44.1282C45.6552 42.6318 46.4189 42.6318 47.0572 42.3648C47.406 42.2192 47.7229 42.0177 47.9929 41.7703C48.4874 41.3172 48.7477 40.6667 49.2682 39.3657L51.9533 32.6537C52.113 32.255 52.3282 31.8848 52.5893 31.5495V25.5741C52.5893 22.7309 52.5893 20.4522 52.3403 18.663C52.0819 16.8055 51.5318 15.2769 50.2868 14.074C49.0509 12.88 47.4957 12.3608 45.6048 12.1152C43.7657 11.8764 41.4184 11.8764 38.4638 11.8765Z" fill="white"/>
</svg>
