<svg width="72" height="72" viewBox="0 0 72 72" fill="none" xmlns="http://www.w3.org/2000/svg">
<rect width="71.2593" height="71.2593" rx="18.1333" fill="#006F73"/>
<path fill-rule="evenodd" clip-rule="evenodd" d="M23.5533 48.1225V32.1835C23.5533 30.816 23.5533 30.1322 23.2905 29.5311C23.0278 28.93 22.5343 28.485 21.5473 27.595L21.1767 27.2608C19.0642 25.3559 18.008 24.4035 18.0001 23.0248C17.9921 21.6461 18.9289 20.7804 20.8026 19.0489C21.0862 18.7868 21.3672 18.5416 21.6384 18.3242C22.5812 17.5685 23.9138 16.7414 24.9336 16.1438C25.888 15.5847 27.0091 15.4559 28.0689 15.7346L29.0491 15.9924C29.8253 16.1965 30.5013 16.6977 30.9451 17.3981C32.1474 19.2955 34.0738 20.2442 36 20.2442V55.5925C33.065 55.5925 30.5516 55.2967 28.5678 54.9317C26.4218 54.5371 25.3488 54.3397 24.4511 53.2157C23.5533 52.0919 23.5533 50.7687 23.5533 48.1225Z" fill="white"/>
<path opacity="0.5" d="M48.4466 48.1225V32.1835C48.4466 30.816 48.4466 30.1322 48.7094 29.5311C48.9722 28.93 49.4658 28.485 50.4528 27.595L50.8232 27.2608C52.9358 25.3559 53.992 24.4035 54 23.0248C54.008 21.6461 53.071 20.7804 51.1974 19.0489C50.9138 18.7868 50.6328 18.5416 50.3616 18.3242C49.4188 17.5685 48.0862 16.7414 47.0664 16.1438C46.112 15.5847 44.9908 15.4559 43.9312 15.7346L42.951 15.9924C42.1748 16.1965 41.4986 16.6977 41.0548 17.3981C39.8526 19.2955 37.9262 20.2442 36 20.2442V55.5925C38.935 55.5925 41.4484 55.2967 43.4322 54.9317C45.5782 54.5371 46.6512 54.3397 47.549 53.2157C48.4466 52.0919 48.4466 50.7687 48.4466 48.1225Z" fill="white"/>
</svg>
