<svg xmlns="http://www.w3.org/2000/svg" width="20" height="20" viewBox="0 0 20 20" fill="none">
  <path fill-rule="evenodd" clip-rule="evenodd" d="M13.6609 4.15886C14.1938 3.73751 14.9551 3.33337 15.834 3.33337C16.2942 3.33337 16.6673 3.70647 16.6673 4.16671V6.32654C16.9349 6.61194 17.2243 6.98188 17.3819 7.50004H18.334C18.7942 7.50004 19.1673 7.87314 19.1673 8.33337V11.6667C19.1673 12.1269 18.7942 12.5 18.334 12.5H17.2203C16.8862 13.1153 16.3832 13.515 15.834 13.8327V16.6667C15.834 17.1269 15.4609 17.5 15.0007 17.5H11.6673C11.2071 17.5 10.834 17.1269 10.834 16.6667V15.8334H10.0007V16.6667C10.0007 17.1269 9.62756 17.5 9.16732 17.5H5.83398C5.37375 17.5 5.00065 17.1269 5.00065 16.6667V14.1532C4.27711 13.5482 3.83215 12.9368 3.58932 12.2447C3.42507 11.7766 3.36637 11.2999 3.34545 10.8334H3.33398C1.95708 10.8334 0.833984 9.71028 0.833984 8.33337V7.50004C0.833984 7.0398 1.20708 6.66671 1.66732 6.66671C2.12756 6.66671 2.50065 7.0398 2.50065 7.50004V8.33337C2.50065 8.7898 2.87756 9.16671 3.33398 9.16671H3.39909C3.75419 6.96113 5.5103 5.63222 7.3921 5.00157C9.21381 4.39105 11.3529 4.34935 12.9816 4.82508C13.1636 4.60115 13.394 4.3699 13.6609 4.15886ZM8.33398 15.8334V15C8.33398 14.5398 8.70708 14.1667 9.16732 14.1667H11.6673C12.1276 14.1667 12.5007 14.5398 12.5007 15V15.8334H14.1673V13.3334C14.1673 13.0177 14.3457 12.7292 14.628 12.588C15.4097 12.1972 15.7221 11.9173 15.8691 11.4273C15.9749 11.0748 16.2993 10.8334 16.6673 10.8334H17.5007V9.16671H16.6673C16.2071 9.16671 15.834 8.79361 15.834 8.33337C15.834 7.86645 15.6526 7.66388 15.2447 7.25596C15.0884 7.09968 15.0007 6.88772 15.0007 6.66671V5.25622C14.8965 5.31716 14.794 5.38765 14.6946 5.46622C14.5194 5.60474 14.3738 5.75342 14.2685 5.88432C14.171 6.00551 14.1336 6.07952 14.1259 6.09469C14.1245 6.09756 14.1241 6.09832 14.1246 6.0969C14.0509 6.31798 13.888 6.49811 13.6754 6.59357C13.4628 6.68904 13.2199 6.69113 13.0057 6.59933C11.7646 6.06741 9.68718 5.99018 7.9217 6.58185C6.17545 7.16708 5.00065 8.29285 5.00065 10C5.00065 10.7817 5.00918 11.2574 5.16198 11.6929C5.30053 12.0877 5.5906 12.5258 6.33398 13.0834C6.54382 13.2408 6.66732 13.4877 6.66732 13.75V15.8334H8.33398ZM12.5007 9.16671C12.5007 8.70647 12.8737 8.33337 13.334 8.33337H13.3423C13.8026 8.33337 14.1757 8.70647 14.1757 9.16671C14.1757 9.62695 13.8026 10 13.3423 10H13.334C12.8737 10 12.5007 9.62695 12.5007 9.16671Z" fill="#EF8E61"/>
</svg>