<svg width="72" height="72" viewBox="0 0 72 72" fill="none" xmlns="http://www.w3.org/2000/svg">
<rect width="71.2593" height="71.2593" rx="18.1333" fill="#006F73"/>
<path d="M19 35.3917C19 33.3082 19 32.2665 19.7417 31.659C20.005 31.4433 20.325 31.2707 20.6817 31.1519C21.6862 30.8173 23.0065 31.1468 25.647 31.8056C27.6629 32.3086 28.6709 32.56 29.6894 32.534C30.0635 32.5245 30.4354 32.4871 30.7996 32.4227C31.7914 32.2472 32.6754 31.8062 34.4436 30.9239L37.0546 29.6208C39.3195 28.4906 40.4519 27.9255 41.7519 27.7951C43.0518 27.6648 44.3428 27.987 46.9251 28.6313L49.1253 29.1803C50.9953 29.6469 51.9303 29.8803 52.4653 30.4356C53 30.9909 53 31.7287 53 33.2043V44.6971C53 46.7805 53 47.8223 52.2584 48.4297C51.9951 48.6454 51.6749 48.8181 51.3183 48.9369C50.3138 49.2714 48.9935 48.942 46.353 48.2831C44.337 47.7801 43.3291 47.5287 42.3106 47.5548C41.9366 47.5642 41.5647 47.6016 41.2005 47.666C40.2086 47.8415 39.3246 48.2826 37.5564 49.1649L34.9454 50.468C32.6805 51.5981 31.5481 52.1633 30.2482 52.2936C28.9483 52.424 27.6571 52.1017 25.0748 51.4574L22.8747 50.9085C21.0047 50.442 20.0696 50.2085 19.5348 49.6532C19 49.0978 19 48.36 19 46.8844V35.3917Z" fill="white"/>
<path fill-rule="evenodd" clip-rule="evenodd" d="M35.9993 14.5444C29.7401 14.5444 24.666 19.3651 24.666 25.3117C24.666 31.2116 28.2832 38.0964 33.9269 40.5584C35.2425 41.1324 36.7562 41.1324 38.0718 40.5584C43.7155 38.0964 47.3327 31.2116 47.3327 25.3117C47.3327 19.3651 42.2586 14.5444 35.9993 14.5444ZM35.9993 29.6555C38.0858 29.6555 39.7771 27.9642 39.7771 25.8778C39.7771 23.7914 38.0858 22.1 35.9993 22.1C33.9129 22.1 32.2216 23.7914 32.2216 25.8778C32.2216 27.9642 33.9129 29.6555 35.9993 29.6555Z" fill="#80B7B9"/>
</svg>
