<svg width="60" height="60" viewBox="0 0 60 60" fill="none" xmlns="http://www.w3.org/2000/svg">
<rect width="60" height="60" rx="16" fill="#EF8E61"/>
<path d="M17.4551 25.7899C17.4551 25.0798 18.0262 24.5042 18.7308 24.5042H25.5344C26.239 24.5042 26.8101 25.0798 26.8101 25.7899C26.8101 26.5 26.239 27.0756 25.5344 27.0756H18.7308C18.0262 27.0756 17.4551 26.5 17.4551 25.7899Z" fill="white"/>
<path fill-rule="evenodd" clip-rule="evenodd" d="M46.2147 26.4773C46.1049 26.4705 45.9853 26.4706 45.8612 26.4706H45.8304H40.9674C36.959 26.4706 33.5293 29.5343 33.5293 33.5294C33.5293 37.5245 36.959 40.5882 40.9674 40.5882H45.8304H45.8612C45.9853 40.5882 46.1049 40.5882 46.2147 40.5815C47.8428 40.4818 49.2828 39.2446 49.4039 37.5166C49.4118 37.4033 49.4116 37.2812 49.4116 37.1681V37.1372V29.9216V29.8908C49.4116 29.7776 49.4118 29.6555 49.4039 29.5422C49.2828 27.8142 47.8428 26.577 46.2147 26.4773ZM40.5362 35.4118C41.5682 35.4118 42.4047 34.569 42.4047 33.5294C42.4047 32.4898 41.5682 31.647 40.5362 31.647C39.5042 31.647 38.6678 32.4898 38.6678 33.5294C38.6678 34.569 39.5042 35.4118 40.5362 35.4118Z" fill="white"/>
<path opacity="0.5" d="M46.1289 26.4731C46.1289 24.3898 46.0532 22.1549 44.7214 20.5527C44.5928 20.398 44.456 20.2479 44.3102 20.1021C42.9895 18.7815 41.3148 18.1954 39.2459 17.9172C37.2355 17.6469 34.6668 17.647 31.4236 17.647H27.6952C24.452 17.647 21.8833 17.6469 19.8729 17.9172C17.8039 18.1954 16.1293 18.7815 14.8086 20.1021C13.488 21.4228 12.9019 23.0974 12.6238 25.1663C12.3535 27.1767 12.3535 29.7454 12.3535 32.9886V33.1877C12.3535 36.4309 12.3535 38.9996 12.6238 41.0099C12.9019 43.0789 13.488 44.7536 14.8086 46.0743C16.1293 47.3948 17.8039 47.9809 19.8729 48.2592C21.8832 48.5293 24.452 48.5293 27.695 48.5293H31.4236C34.6668 48.5293 37.2355 48.5293 39.2459 48.2592C41.3148 47.9809 42.9895 47.3948 44.3102 46.0743C44.6711 45.7132 44.9776 45.3253 45.2381 44.9092C46.0331 43.6395 46.1289 42.0834 46.1289 40.5855C46.0439 40.5882 45.9542 40.5882 45.8621 40.5882H40.968C36.9597 40.5882 33.53 37.5244 33.53 33.5293C33.53 29.5342 36.9597 26.4705 40.968 26.4705H45.8619C45.954 26.4705 46.0439 26.4704 46.1289 26.4731Z" fill="white"/>
<path d="M26.6519 13.3625L22.9435 15.8691L19.8848 17.9159C21.8936 17.647 24.4592 17.647 27.6969 17.647H31.4254C34.6686 17.647 37.2373 17.647 39.2476 17.9173C39.6521 17.9716 40.0414 18.0378 40.4159 18.1188L37.0612 15.8823L33.3332 13.3625C31.3416 12.0164 28.6435 12.0164 26.6519 13.3625Z" fill="white"/>
</svg>
