<svg xmlns="http://www.w3.org/2000/svg" width="463" height="261" viewBox="0 0 463 261" fill="none">
  <path d="M116.998 -114C116.194 -112.432 115.39 -110.865 102.164 -91.2435C88.9384 -71.6224 63.3157 -33.9953 46.3679 -5.87406C29.4202 22.2472 21.9237 39.7225 17.1506 53.6405C3.13903 94.4974 12.5735 116.75 21.1522 127.28C29.2161 137.177 45.9763 142.03 63.6767 146.95C85.3876 152.985 109.629 151.711 152.56 147.41C200.855 142.573 226.666 116.306 252.951 92.0114C266.121 79.8391 281.268 57.2642 292.789 40.4015C311.666 12.7715 315.889 -2.28154 316.968 -8.33029C318.124 -14.806 315.715 -20.169 311.173 -23.1259C306.661 -26.064 298.383 -24.6529 291.959 -23.9711C284.843 -23.2159 262.858 0.982622 230.836 38.4843C209.593 63.3632 205.379 78.5786 202.355 94.3534C196.494 124.931 198.656 149.424 203.21 161.148C215.453 192.665 239.819 206.334 264.835 219.419C286.784 230.898 324.79 238.43 362.492 245.513C379.239 248.659 391.676 249.654 417.048 250.386C442.42 251.118 480.488 251.239 506.658 250.512C546.073 249.418 572.557 243.266 598.619 236.063C611.587 232.175 624.033 227.815 646.968 216.766C669.903 205.717 702.949 188.112 736.996 169.973" stroke-opacity="0.05" stroke-width="20" stroke-linecap="round"/>
</svg>