<svg width="30" height="30" viewBox="0 0 30 30" fill="none" xmlns="http://www.w3.org/2000/svg">
<rect width="30" height="30" rx="6.21622" fill="#FF385C"/>
<g clip-path="url(#clip0_121_8198)">
<path d="M22.2744 20.5515C22.1484 21.487 21.519 22.2965 20.6376 22.6562C20.2058 22.8359 19.7382 22.89 19.2705 22.8359C18.8209 22.782 18.3712 22.6381 17.9036 22.3685C17.256 22.0084 16.6084 21.451 15.853 20.6235C17.0402 19.1666 17.7595 17.8355 18.0294 16.6486C18.1553 16.0909 18.1733 15.5872 18.1194 15.1195C18.0475 14.6699 17.8856 14.256 17.6337 13.8963C17.0761 13.087 16.1408 12.6192 15.0976 12.6192C14.0543 12.6192 13.119 13.1049 12.5614 13.8963C12.3095 14.256 12.1478 14.6699 12.0757 15.1195C12.0038 15.5872 12.0218 16.1088 12.1657 16.6486C12.4354 17.8355 13.1729 19.1846 14.3421 20.6413C13.6047 21.469 12.9391 22.0266 12.2915 22.3863C11.824 22.6562 11.3742 22.8001 10.9246 22.8539C10.4389 22.9079 9.97118 22.8359 9.55753 22.6742C8.67615 22.3144 8.0467 21.5047 7.92073 20.5695C7.86683 20.1199 7.90276 19.6703 8.08263 19.1666C8.13654 18.9866 8.22657 18.8071 8.31641 18.5911C8.44237 18.3034 8.58631 17.9974 8.73006 17.6915L8.74821 17.6558C9.98915 14.9755 11.3203 12.2415 12.7053 9.57961L12.7593 9.47143C12.9032 9.2019 13.0469 8.91421 13.191 8.64432C13.3348 8.35646 13.4967 8.08656 13.6945 7.85261C14.0722 7.42081 14.5759 7.18703 15.1335 7.18703C15.6911 7.18703 16.1947 7.42081 16.5725 7.85261C16.7703 8.08656 16.9322 8.35646 17.0761 8.64432C17.2201 8.91421 17.3638 9.2019 17.5077 9.47143L17.5618 9.57961C18.9287 12.2595 20.2599 14.9935 21.501 17.6738V17.6915C21.6449 17.9794 21.7707 18.3034 21.9146 18.5911C22.0047 18.8071 22.0945 18.9866 22.1484 19.1666C22.2924 19.6342 22.3463 20.0841 22.2744 20.5515ZM15.0976 19.706C14.1263 18.4831 13.4967 17.3318 13.2809 16.3608C13.191 15.9469 13.1729 15.5872 13.227 15.2634C13.2629 14.9755 13.3709 14.7236 13.5147 14.5076C13.8564 14.0224 14.432 13.7161 15.0976 13.7161C15.7631 13.7161 16.3566 14.0041 16.6804 14.5076C16.8242 14.7236 16.9322 14.9755 16.9681 15.2634C17.022 15.5872 17.0041 15.9649 16.9142 16.3608C16.6984 17.314 16.0688 18.4651 15.0976 19.706ZM23.2097 18.7708C23.1198 18.555 23.0298 18.3212 22.94 18.1233C22.796 17.7997 22.6521 17.4937 22.5261 17.2058L22.5082 17.188C21.2672 14.4898 19.9361 11.7558 18.5331 9.05815L18.4791 8.94997C18.3352 8.68008 18.1913 8.39222 18.0475 8.10453C17.8675 7.78055 17.6876 7.43914 17.3999 7.11516C16.8242 6.39568 15.9969 6 15.1155 6C14.2162 6 13.4069 6.39568 12.8132 7.0794C12.5434 7.40302 12.3456 7.74479 12.1657 8.06877C12.0218 8.35646 11.8779 8.64432 11.7339 8.91421L11.68 9.02185C10.2952 11.7199 8.94605 14.4541 7.70493 17.1521L7.68696 17.188C7.56099 17.4757 7.41706 17.7814 7.27313 18.1054C7.18329 18.3034 7.09326 18.5192 7.00342 18.753C6.76946 19.4184 6.69758 20.048 6.78743 20.6954C6.98545 22.0445 7.8848 23.1778 9.12592 23.6813C9.59347 23.8793 10.0792 23.9692 10.5828 23.9692C10.7268 23.9692 10.9066 23.9512 11.0506 23.9331C11.6441 23.861 12.2556 23.6635 12.8491 23.3216C13.5867 22.9079 14.2882 22.3144 15.0796 21.451C15.8709 22.3144 16.5904 22.9079 17.3099 23.3216C17.9036 23.6635 18.5151 23.861 19.1086 23.9331C19.2525 23.9512 19.4324 23.9692 19.5763 23.9692C20.08 23.9692 20.5835 23.8793 21.0333 23.6813C22.2924 23.1778 23.1737 22.0266 23.3716 20.6954C23.5155 20.0658 23.4434 19.4365 23.2097 18.7708Z" fill="white"/>
</g>
<defs>
<clipPath id="clip0_121_8198">
<rect width="16.6957" height="18" fill="white" transform="translate(6.75 6)"/>
</clipPath>
</defs>
</svg>
