<svg width="30" height="30" viewBox="0 0 30 30" fill="none" xmlns="http://www.w3.org/2000/svg">
<rect width="30" height="30" rx="6.13947" fill="#005BAB"/>
<path d="M11.2119 9.28831C11.2424 9.25783 11.2729 9.24487 11.2988 9.24487C11.3453 9.24487 11.3773 9.28603 11.3765 9.33557C11.375 9.36605 11.362 9.39806 11.3331 9.42702C10.1868 10.853 9.3523 12.5197 9.3523 14.8313C9.3523 17.1428 10.1861 18.776 11.3331 20.2012C11.362 20.2294 11.375 20.2645 11.3765 20.2927C11.3773 20.343 11.3453 20.3841 11.2988 20.3841C11.2729 20.3841 11.2424 20.3719 11.2119 20.3399L6.32513 15.614C6.08125 15.4051 5.92578 15.162 5.92578 14.8145C5.92578 14.467 6.08125 14.2231 6.32513 14.0158L11.2119 9.28831Z" fill="white"/>
<path d="M14.8571 8.88943C12.9441 8.88943 12.1973 11.6011 12.1973 14.8325C12.1973 18.0639 12.9449 20.7405 14.8571 20.7405C16.0056 20.7405 16.9842 20.0683 16.9872 19.515C16.9872 19.3946 16.9407 19.2788 16.8394 19.1774C16.2952 18.6523 16.0834 18.1264 16.0803 17.6623C16.0773 16.7767 16.8455 16.1175 17.5527 16.1175C18.526 16.1175 19.0999 16.8826 19.0999 17.8726C19.0999 18.8108 18.6997 19.5935 18.2653 20.2192C18.2478 20.2444 18.2409 20.2733 18.2409 20.2985C18.2409 20.3465 18.2699 20.3877 18.3133 20.3877C18.34 20.3877 18.3705 20.3739 18.404 20.3404L23.2915 15.6145C23.5347 15.4056 23.6909 15.1625 23.6909 14.815C23.6909 14.4674 23.5347 14.2236 23.2915 14.0163L18.404 9.28879C18.3705 9.25602 18.34 9.24154 18.3133 9.24154C18.2691 9.24154 18.2409 9.28269 18.2409 9.33147C18.2409 9.35662 18.2478 9.38482 18.2653 9.41073C18.6997 10.0357 19.0999 10.8184 19.0999 11.7558C19.0999 12.7458 18.526 13.5125 17.5527 13.5125C16.8455 13.5125 16.0773 12.8525 16.0803 11.9669C16.0834 11.5043 16.2952 10.9777 16.8394 10.4526C16.9407 10.3504 16.9872 10.2354 16.9872 10.1149C16.9842 9.56239 16.0056 8.88867 14.8571 8.88867V8.88943Z" fill="white"/>
</svg>
