<svg width="30" height="30" viewBox="0 0 30 30" fill="none" xmlns="http://www.w3.org/2000/svg">
<rect width="30" height="30" rx="6.21622" fill="#EBB300"/>
<path d="M10.8808 13.4241C10.1287 13.6281 9.82275 13.934 9.70803 14.0997V13.4496H5.79454C5.67981 12.2003 6.98006 12.2258 6.98006 12.2258C8.24206 12.1748 8.29305 13.0034 8.29305 13.0034H9.72077C9.72077 11.5375 7.68117 11.359 7.68117 11.359C5.67981 11.1933 4.99144 11.8817 4.99144 11.8817C4.36682 12.417 4.37956 13.2711 4.39231 13.4623H3.74219L3.75494 14.4312H4.39231V18.2427H5.80729V14.4184L8.29305 14.4312V18.2427H9.70803V15.5657C9.78451 15.1068 10.0777 14.4821 11.1867 14.3929C11.1867 14.3929 12.7929 14.138 12.9969 15.5784V18.2427H14.4246V15.0303C14.1059 12.7357 10.8808 13.4368 10.8808 13.4368V13.4241ZM20.4797 15.3745C20.6072 13.7173 18.8607 13.4751 18.8607 13.4751C17.2928 13.2201 16.4132 13.4751 16.3877 13.4751C14.858 13.832 14.858 15.0558 14.858 15.0558H16.2985C16.2985 15.0558 16.3112 14.0997 17.8664 14.2272C17.8664 14.2272 18.9882 14.2782 19.052 14.7881C19.052 14.7881 19.4089 15.4 17.8664 15.4765C16.2985 15.5657 14.4501 15.5402 14.6413 16.9807C14.6413 16.9807 14.6031 18.3829 17.1526 18.3319C17.1526 18.3319 18.5038 18.3701 19.0647 17.6818V17.7073L19.1029 18.2427H20.5052L20.4797 15.3745ZM18.8862 16.9552C18.5293 17.3886 18.1086 17.5161 17.6115 17.5415C17.1653 17.567 16.222 17.6435 16.2093 16.9169C16.1838 16.2413 17.3438 16.2668 18.1086 16.2158C18.1086 16.2158 18.8862 16.2158 19.052 15.9991C19.052 16.0373 19.1922 16.5855 18.8862 16.9552ZM25.3875 16.6365C25.1708 17.0954 24.8138 17.3631 23.896 17.3631C23.5008 17.3758 22.2516 17.2356 22.1878 15.8844V15.8334C22.2261 14.4821 23.5136 14.3419 23.9343 14.3292C24.7119 14.3164 25.1453 14.5586 25.3747 15.0175L26.8152 15.0048C26.8152 14.8518 26.7642 14.6861 26.6877 14.5459C26.3945 14.0105 25.6679 13.3349 23.8323 13.3859C23.3224 13.3859 22.8252 13.4751 22.3408 13.6281C21.7162 13.8703 20.6326 14.5331 20.6964 15.9354C20.7729 17.4141 21.7799 17.8475 22.3663 18.0897C22.7615 18.2554 23.2586 18.3064 23.8705 18.3064C25.7062 18.3446 26.42 17.6308 26.7005 17.0826C26.7897 16.8914 26.8152 16.7894 26.8279 16.6237C26.8407 16.6237 25.3875 16.6365 25.3875 16.6365Z" fill="white"/>
</svg>
