<svg xmlns="http://www.w3.org/2000/svg" width="36" height="36" viewBox="0 0 36 36" fill="none">
  <g filter="url(#filter0_d_121_12635)">
    <rect x="3" y="3" width="30" height="30" rx="6.21622" fill="white"/>
    <path d="M15.4228 15.1688L15.0523 14.0436L15.641 13.4526L16.1343 15.3825L16.9117 16.1622L16.407 16.6691L15.6342 15.8917L13.793 15.3098L14.3476 14.7529L15.4114 15.1666L15.4228 15.1688Z" fill="#231F20"/>
    <path d="M13.1976 16.6099C12.8816 16.9258 12.9862 17.31 13.3703 17.6964C13.7545 18.0829 14.1364 18.1874 14.4523 17.8715C14.7683 17.5555 14.6615 17.1691 14.2773 16.7849C13.8932 16.4008 13.5113 16.2939 13.1976 16.6099ZM12.8021 16.2144C13.4226 15.5915 14.2432 15.6506 14.8251 16.2371C14.9689 16.3636 15.0845 16.5189 15.1643 16.693C15.244 16.8671 15.2863 17.056 15.2882 17.2475C15.2901 17.439 15.2517 17.6287 15.1755 17.8044C15.0992 17.98 14.9868 18.1376 14.8456 18.267C14.225 18.8898 13.4044 18.8284 12.8225 18.2443C12.6787 18.1178 12.5632 17.9625 12.4834 17.7884C12.4036 17.6143 12.3614 17.4254 12.3594 17.2339C12.3575 17.0424 12.3959 16.8526 12.4722 16.677C12.5485 16.5013 12.6608 16.3437 12.8021 16.2144Z" fill="#231F20"/>
    <path d="M13.7114 19.3765L12.3612 18.99C12.4364 18.8289 12.4588 18.6481 12.4254 18.4734C12.3919 18.2988 12.3042 18.1391 12.1748 18.0171C12.0974 17.9447 12.0064 17.8884 11.907 17.8517C11.8076 17.8149 11.7019 17.7984 11.596 17.803C11.4901 17.8077 11.3862 17.8334 11.2905 17.8788C11.1947 17.9242 11.1089 17.9882 11.0382 18.0671L10.0312 19.0787L12.0157 21.0699L12.5271 20.5698L10.92 18.9559L11.2451 18.6309C11.2779 18.5967 11.3171 18.5694 11.3606 18.5505C11.404 18.5317 11.4508 18.5217 11.4981 18.5211C11.5455 18.5205 11.5925 18.5293 11.6364 18.5471C11.6803 18.5648 11.7202 18.5911 11.7538 18.6245C11.7875 18.6578 11.8141 18.6975 11.8323 18.7412C11.8504 18.785 11.8597 18.8319 11.8595 18.8792C11.8593 18.9266 11.8497 18.9734 11.8313 19.017C11.8128 19.0606 11.7859 19.1001 11.752 19.1332L11.4542 19.4333L13.1704 19.922L13.7114 19.381" fill="#231F20"/>
    <path d="M8.38281 20.7401L10.3672 22.7314L11.7356 21.3584L11.3288 20.9538L10.465 21.8199L10.0331 21.3857L10.7332 20.6856L10.3286 20.2787L9.62848 20.9811L9.28978 20.6401L10.1536 19.7718L9.74895 19.3672L8.38281 20.7401Z" fill="#231F20"/>
    <path d="M6.75 22.3769L8.73442 24.3705L10.0801 23.018L9.63003 22.5633L8.78671 23.4112L7.25236 21.8723L6.75 22.3769Z" fill="#231F20"/>
    <path d="M27.7158 21.1698L27.0816 23.2815L27.0794 23.2838L28.45 21.9063L28.9206 22.3791L26.9384 24.3703L26.3156 23.7475L26.8566 21.5721L26.8589 21.5699L25.5018 22.9314L25.0449 22.4723L27.0293 20.4788L27.7158 21.1698Z" fill="#231F20"/>
    <path d="M24.6078 22.0358L26.5922 20.0423L26.0648 19.5127L24.0781 21.5039L24.6078 22.0358Z" fill="#231F20"/>
    <path d="M22.3691 19.7901L23.7148 21.1426L24.1672 20.688L23.3238 19.8424L24.8559 18.3035L24.3536 17.7988L22.3691 19.7901Z" fill="#231F20"/>
    <path d="M21.9934 19.4128L22.3753 18.0489C22.535 18.1253 22.7147 18.149 22.8887 18.1168C23.0627 18.0845 23.222 17.9979 23.3437 17.8694C23.4154 17.7916 23.471 17.7003 23.5072 17.6009C23.5435 17.5015 23.5596 17.3959 23.5547 17.2902C23.5499 17.1845 23.5241 17.0808 23.4789 16.9851C23.4337 16.8894 23.37 16.8037 23.2914 16.7328L22.2208 15.6599L20.2363 17.6512L20.741 18.1581L22.348 16.5442L22.739 16.9329C22.7723 16.966 22.7987 17.0054 22.8168 17.0487C22.8349 17.0921 22.8442 17.1385 22.8443 17.1855C22.8444 17.2325 22.8353 17.279 22.8174 17.3224C22.7995 17.3659 22.7733 17.4053 22.7402 17.4386C22.707 17.4719 22.6677 17.4983 22.6243 17.5164C22.581 17.5345 22.5345 17.5438 22.4875 17.5439C22.4405 17.544 22.394 17.5349 22.3506 17.517C22.3072 17.4991 22.2677 17.4729 22.2344 17.4398L21.8752 17.0806L21.4524 18.8673L21.9934 19.4083" fill="#231F20"/>
    <path d="M20.4516 14.6938L20.1129 15.0325L20.8744 15.7963L20.4698 16.2032L19.7083 15.4394L19.2764 15.8713L20.2016 16.8033L19.797 17.2079L18.3672 15.7735L20.3516 13.78L21.7837 15.2166L21.3791 15.6235L20.4516 14.6938Z" fill="#231F20"/>
    <path d="M17.0115 14.4119L18.5549 13.6709L17.4161 14.8165L17.873 15.2757L19.8574 13.2844L19.2278 12.6502L17.7343 13.3822L18.4822 11.9024L17.8321 11.25L15.8477 13.2435L16.3068 13.7027L17.4457 12.557L16.7092 14.1073L17.0115 14.4119Z" fill="#231F20"/>
    <path d="M9.11133 24.75H26.562L17.8378 15.9917L9.11133 24.75Z" fill="#73BF44"/>
  </g>
  <defs>
    <filter id="filter0_d_121_12635" x="-2.38419e-07" y="-2.38419e-07" width="36" height="36" filterUnits="userSpaceOnUse" color-interpolation-filters="sRGB">
      <feFlood flood-opacity="0" result="BackgroundImageFix"/>
      <feColorMatrix in="SourceAlpha" type="matrix" values="0 0 0 0 0 0 0 0 0 0 0 0 0 0 0 0 0 0 127 0" result="hardAlpha"/>
      <feOffset/>
      <feGaussianBlur stdDeviation="1.5"/>
      <feComposite in2="hardAlpha" operator="out"/>
      <feColorMatrix type="matrix" values="0 0 0 0 0 0 0 0 0 0 0 0 0 0 0 0 0 0 0.25 0"/>
      <feBlend mode="normal" in2="BackgroundImageFix" result="effect1_dropShadow_121_12635"/>
      <feBlend mode="normal" in="SourceGraphic" in2="effect1_dropShadow_121_12635" result="shape"/>
    </filter>
  </defs>
</svg>